<svg xmlns:xlink="http://www.w3.org/1999/xlink" xmlns="http://www.w3.org/2000/svg" width="659" height="135" viewBox="0 0 659 135" fill="none">
<path fill-rule="evenodd" clip-rule="evenodd" d="M118 97.0321C118 99.9526 116.446 102.652 113.92 104.119L63.1137 133.612C60.57 135.089 57.43 135.089 54.8863 133.612L4.08015 104.119C1.55442 102.652 0 99.9526 0 97.0321V37.9678C0 35.0473 1.55443 32.3476 4.08016 30.8814L54.8863 1.388C57.43 -0.0886425 60.57 -0.088642 63.1137 1.388L113.92 30.8814C116.446 32.3476 118 35.0473 118 37.9678V97.0321ZM59.348 28.6098H29V106.37H59.348C84.08 106.37 99.632 91.2498 99.632 67.4898C99.632 43.7298 84.08 28.6098 59.348 28.6098ZM45.524 94.0578V40.9218H59.024C74.144 40.9218 83 51.2898 83 67.4898C83 83.6898 74.144 94.0578 59.024 94.0578H45.524Z" fill="white"/>
<path d="M611.321 66.3259C611.321 56.4979 620.069 50.3419 634.217 50.3419C648.365 50.3419 656.681 56.4979 658.085 66.4339V68.0539H649.229C648.689 60.7099 642.857 57.4699 634.217 57.4699C625.685 57.4699 620.501 60.6019 620.501 65.8939C620.501 71.1859 624.929 73.0219 630.869 74.1019L639.833 75.7219C650.849 77.6659 658.517 81.4459 658.517 91.2739C658.517 100.994 650.309 107.906 635.189 107.906C620.069 107.906 610.997 100.994 609.377 90.3019V88.6819H618.341C619.313 97.1059 625.901 100.778 635.081 100.778C644.369 100.778 649.337 97.2139 649.337 91.8139C649.337 86.6299 644.909 84.7939 637.673 83.4979L628.709 81.8779C618.449 80.0419 611.321 75.8299 611.321 66.3259Z" fill="white"/>
<path d="M551.41 28.8499H560.914V59.1979H561.994C564.37 55.5259 569.878 50.3419 580.138 50.3419C594.286 50.3419 605.302 60.9259 605.302 79.0699C605.302 97.2139 594.286 107.798 580.138 107.798C569.554 107.798 563.938 102.398 561.238 98.2939H560.158L557.998 106.61H551.41V28.8499ZM560.374 79.0699C560.374 92.7859 567.826 100.454 578.086 100.454C588.238 100.454 595.69 92.7859 595.69 79.0699C595.69 65.4619 588.238 57.6859 578.086 57.6859C567.826 57.6859 560.374 65.4619 560.374 79.0699Z" fill="white"/>
<path d="M492.246 69.2419V67.6219C494.082 57.3619 503.262 50.3419 516.978 50.3419C530.694 50.3419 540.198 57.3619 540.198 70.7539V106.61H531.018V98.5099H529.938C527.562 102.398 522.27 107.798 510.822 107.798C499.05 107.798 490.734 101.858 490.734 92.0299C490.734 81.7699 499.05 76.9099 510.282 75.8299L530.802 73.8859V70.5379C530.802 61.5739 525.51 57.4699 516.762 57.4699C507.906 57.4699 502.398 61.5739 501.426 69.2419H492.246ZM500.238 91.5979C500.238 97.1059 504.99 100.67 512.442 100.67C522.486 100.67 530.802 94.8379 530.802 82.4179V80.9059L511.578 82.7419C504.45 83.3899 500.238 86.0899 500.238 91.5979Z" fill="white"/>
<path d="M433.824 28.8499H443.76V98.4019H485.88V106.61H433.824V28.8499Z" fill="white"/>
<path d="M356.348 78.3138C356.348 59.0898 369.416 48.8298 386.156 48.8298C403.22 48.8298 415.1 59.0898 415.1 77.4498V82.0938H372.44C372.656 90.0858 377.732 96.8898 386.48 96.8898C395.012 96.8898 398.144 91.7058 399.224 88.2498H413.912V89.8698C411.86 97.7538 403.544 107.906 386.48 107.906C369.416 107.906 356.348 97.5378 356.348 78.3138ZM372.44 72.4818H399.44C399.008 65.5698 394.688 59.8458 386.156 59.8458C377.624 59.8458 372.98 65.5698 372.44 72.4818Z" fill="white"/>
<path d="M299.569 66.2179C299.569 56.1739 308.749 48.9379 324.949 48.9379C341.257 48.9379 350.005 56.1739 351.625 66.1099V67.7299H336.937C336.397 62.1139 331.753 59.7379 325.165 59.7379C318.577 59.7379 314.797 62.0059 314.797 65.5699C314.797 69.1339 317.713 70.4299 321.817 71.1859L332.617 73.2379C344.173 75.3979 352.057 79.6099 352.057 89.8699C352.057 100.022 343.633 107.906 326.137 107.906C308.749 107.906 299.677 100.022 298.057 89.5459V87.9259H312.745C313.501 94.5139 319.009 97.1059 325.921 97.1059C332.941 97.1059 336.829 94.4059 336.829 90.7339C336.829 87.2779 334.021 85.7659 328.837 84.7939L318.037 82.8499C307.129 80.7979 299.569 76.2619 299.569 66.2179Z" fill="white"/>
<path d="M291.033 106.61H275.805V99.5899H274.725C272.889 102.398 268.461 107.69 257.229 107.69C244.485 107.69 235.953 100.454 235.953 87.0619V50.1259H251.829V85.6579C251.829 92.5699 255.717 96.0259 262.089 96.0259C269.109 96.0259 275.157 92.0299 275.157 81.7699V50.1259H291.033V106.61Z" fill="white"/>
<path d="M188.543 60.7099V50.1259H200.855V44.2939C200.855 34.2499 207.227 28.8499 217.379 28.8499H232.283V39.4339H217.595L216.731 40.2979V50.1259H230.339V60.7099H216.731V106.61H200.855V60.7099H188.543Z" fill="white"/>
<path d="M128 78.3138C128 59.0898 141.068 48.8298 157.808 48.8298C174.872 48.8298 186.752 59.0898 186.752 77.4498V82.0938H144.092C144.308 90.0858 149.384 96.8898 158.132 96.8898C166.664 96.8898 169.796 91.7058 170.876 88.2498H185.564V89.8698C183.512 97.7538 175.196 107.906 158.132 107.906C141.068 107.906 128 97.5378 128 78.3138ZM144.092 72.4818H171.092C170.66 65.5698 166.34 59.8458 157.808 59.8458C149.276 59.8458 144.632 65.5698 144.092 72.4818Z" fill="white"/>
</svg>